<svg xmlns="http://www.w3.org/2000/svg" viewBox="0 0 3983.227 3627.854"><defs><style>.cls-1{fill:#ed1c24;}.cls-1,.cls-2{stroke:#231f20;stroke-miterlimit:10;}.cls-2{fill:#2e3192;}</style></defs><title>Termodom_Logo</title><g id="Layer_2" data-name="Layer 2"><polygon class="cls-1" points="484.395 83.604 484.395 1420.104 1152.645 751.854 484.395 83.604"/></g><g id="Layer_3" data-name="Layer 3"><polyline class="cls-1" points="567.645 0.354 1244.895 677.604 1433.895 488.604 3029.145 488.604 2540.895 0.354"/></g><g id="Layer_4" data-name="Layer 4"><polygon class="cls-1" points="2670.27 1497.729 3326.145 841.854 3982.02 1497.729 2670.27 1497.729"/></g><g id="Layer_5" data-name="Layer 5"><polygon class="cls-1" points="526.02 2114.229 526.02 3037.291 2556.082 3037.291 2556.082 1675.479 2118.176 2113.385 526.02 2114.229"/><path class="cls-1" d="M563.125,2351.875" transform="translate(-37.105 -237.646)"/></g><g id="Layer_6" data-name="Layer 6"><polygon class="cls-2" points="3575.895 1588.854 3575.895 3627.354 1528.395 3627.354 1528.395 3163.854 2642.145 3163.854 2642.145 1588.854 3575.895 1588.854"/><polygon class="cls-2" points="1464.27 565.104 1.207 2028.166 2081.895 2028.166 3348.363 761.697 3548.332 961.666 3548.332 565.104 1464.27 565.104"/></g></svg>