<?xml version="1.0" encoding="utf-8"?>
<!-- Generator: Adobe Illustrator 23.0.1, SVG Export Plug-In . SVG Version: 6.00 Build 0)  -->
<svg version="1.0" xmlns="http://www.w3.org/2000/svg" xmlns:xlink="http://www.w3.org/1999/xlink" x="0px" y="0px"
	 viewBox="0 0 4096 4096" enable-background="new 0 0 4096 4096" xml:space="preserve">
<g id="Layer_2">
	<g>
		<polygon fill="#FFFFFF" stroke="#ED1C24" stroke-width="10" stroke-miterlimit="10" points="521.5,321.25 521.5,1657.75 
			1189.75,989.5 		"/>
	</g>
</g>
<g id="Layer_7">
	<path fill="#F1F2F2" stroke="#ED1C24" stroke-width="10" stroke-miterlimit="10" d="M3745.75,526"/>
	<polygon fill="#FFFFFF" stroke="#ED1C24" stroke-width="10" stroke-miterlimit="10" points="3076.47,726.25 1471,726.25 
		1285.38,911.88 613.75,240.25 2584.75,240.25 	"/>
</g>
<g id="Layer_4">
	<polygon fill="#FFFFFF" stroke="#ED1C24" stroke-width="10" stroke-miterlimit="10" points="2707.38,1735.38 3363.25,1079.5 
		4019.13,1735.38 	"/>
</g>
<g id="Layer_5">
	<polygon fill="#FFFFFF" stroke="#ED1C24" stroke-width="10" stroke-miterlimit="10" points="563.13,2351.88 563.13,3274.94 
		2593.19,3274.94 2593.19,1913.13 2155.28,2351.03 	"/>
	<path fill="#ED1C24" stroke="#000000" stroke-miterlimit="10" d="M563.13,2351.88"/>
</g>
<g id="Layer_6">
	<polygon fill="#FFFFFF" stroke="#2E3192" stroke-width="10" stroke-miterlimit="10" points="3613,1826.5 3613,3865 1565.5,3865 
		1565.5,3401.5 2679.25,3401.5 2679.25,1826.5 	"/>
	<polygon fill="#FFFFFF" stroke="#2E3192" stroke-width="10" stroke-miterlimit="10" points="1501.38,802.75 38.31,2265.81 
		2119,2265.81 3385.47,999.34 3585.44,1199.31 3585.44,802.75 	"/>
</g>
</svg>
